<?xml version="1.0" encoding="UTF-8" standalone="no"?><svg xmlns="http://www.w3.org/2000/svg" xmlns:xlink="http://www.w3.org/1999/xlink" contentScriptType="application/ecmascript" contentStyleType="text/css" height="1785px" preserveAspectRatio="none" style="width:962px;height:1785px;background:#FFFFFF;" version="1.1" viewBox="0 0 962 1785" width="962px" zoomAndPan="magnify"><defs/><g><rect fill="#00FFFF" height="38.7031" style="stroke:#000000;stroke-width:1.0;" width="10" x="204" y="95.6094"/><rect fill="#00FFFF" height="9" style="stroke:#000000;stroke-width:1.0;" width="10" x="204" y="1760.6875"/><rect fill="#00FFFF" height="978.1328" style="stroke:#000000;stroke-width:1.0;" width="10" x="286" y="296.7734"/><rect fill="#00FFFF" height="192.4609" style="stroke:#000000;stroke-width:1.0;" width="10" x="468" y="134.3125"/><rect fill="#00FFFF" height="201.5938" style="stroke:#000000;stroke-width:1.0;" width="10" x="468" y="408.9844"/><rect fill="#00FFFF" height="185.7695" style="stroke:#000000;stroke-width:1.0;" width="10" x="468" y="675.457"/><rect fill="#00FFFF" height="854.7578" style="stroke:#000000;stroke-width:1.0;" width="10" x="468" y="914.9297"/><rect fill="#00FFFF" height="1079.8906" style="stroke:#000000;stroke-width:1.0;" width="10" x="737" y="164.6641"/><rect fill="#FFFFFF" height="873.4297" style="stroke:#000000;stroke-width:2.0;" width="946.5" x="10" y="341.7734"/><rect fill="#FFFFFF" height="151.2422" style="stroke:#000000;stroke-width:2.0;" width="399" x="249" y="467.3359"/><rect fill="#FFFFFF" height="46.1875" style="stroke:none;stroke-width:1.0;" width="399" x="249" y="572.3906"/><rect fill="#FFFFFF" height="124.2422" style="stroke:#000000;stroke-width:2.0;" width="352.5" x="437" y="744.9844"/><rect fill="#FFFFFF" height="46.1875" style="stroke:none;stroke-width:1.0;" width="352.5" x="437" y="823.0391"/><rect fill="#FFFFFF" height="48.7031" style="stroke:#000000;stroke-width:2.0;" width="352.5" x="437" y="1349.6094"/><rect fill="#FFFFFF" height="138.2656" style="stroke:#000000;stroke-width:2.0;" width="540.5" x="249" y="1412.3125"/><rect fill="#FFFFFF" height="107.0547" style="stroke:#000000;stroke-width:2.0;" width="305" x="437" y="1564.5781"/><rect fill="#FFFFFF" height="45.3516" style="stroke:none;stroke-width:1.0;" width="305" x="437" y="1626.2813"/><line style="stroke:#000000;stroke-width:1.0;stroke-dasharray:5.0,5.0;" x1="209" x2="209" y1="85.6094" y2="1778.6875"/><line style="stroke:#000000;stroke-width:1.0;stroke-dasharray:5.0,5.0;" x1="291" x2="291" y1="85.6094" y2="1778.6875"/><line style="stroke:#000000;stroke-width:1.0;stroke-dasharray:5.0,5.0;" x1="473" x2="473" y1="85.6094" y2="1778.6875"/><line style="stroke:#000000;stroke-width:1.0;stroke-dasharray:5.0,5.0;" x1="741.5" x2="741.5" y1="85.6094" y2="1778.6875"/><text fill="#000000" font-family="sans-serif" font-size="14" lengthAdjust="spacing" textLength="74" x="169" y="82.5332">1. Angreifer</text><ellipse cx="209" cy="15" fill="#FFFFFF" rx="8" ry="8" style="stroke:#000000;stroke-width:2.0;"/><path d="M209,23 L209,50 M196,31 L222,31 M209,50 L196,65 M209,50 L222,65 " fill="none" style="stroke:#000000;stroke-width:2.0;"/><text fill="#000000" font-family="sans-serif" font-size="14" lengthAdjust="spacing" textLength="58" x="259" y="82.5332">Angreifer</text><ellipse cx="291" cy="15" fill="#FFFFFF" rx="8" ry="8" style="stroke:#000000;stroke-width:2.0;"/><path d="M291,23 L291,50 M278,31 L304,31 M291,50 L278,65 M291,50 L304,65 " fill="none" style="stroke:#000000;stroke-width:2.0;"/><text fill="#000000" font-family="sans-serif" font-size="14" lengthAdjust="spacing" textLength="46" x="447" y="82.5332">System</text><ellipse cx="473" cy="52" fill="#FFFFFF" rx="12" ry="12" style="stroke:#000000;stroke-width:2.0;"/><line style="stroke:#000000;stroke-width:2.0;" x1="461" x2="485" y1="66" y2="66"/><text fill="#000000" font-family="sans-serif" font-size="14" lengthAdjust="spacing" textLength="69" x="704.5" y="82.5332">Verteidiger</text><ellipse cx="742" cy="15" fill="#FFFFFF" rx="8" ry="8" style="stroke:#000000;stroke-width:2.0;"/><path d="M742,23 L742,50 M729,31 L755,31 M742,50 L729,65 M742,50 L755,65 " fill="none" style="stroke:#000000;stroke-width:2.0;"/><rect fill="#00FFFF" height="38.7031" style="stroke:#000000;stroke-width:1.0;" width="10" x="204" y="95.6094"/><rect fill="#00FFFF" height="9" style="stroke:#000000;stroke-width:1.0;" width="10" x="204" y="1760.6875"/><rect fill="#00FFFF" height="978.1328" style="stroke:#000000;stroke-width:1.0;" width="10" x="286" y="296.7734"/><rect fill="#00FFFF" height="192.4609" style="stroke:#000000;stroke-width:1.0;" width="10" x="468" y="134.3125"/><rect fill="#00FFFF" height="201.5938" style="stroke:#000000;stroke-width:1.0;" width="10" x="468" y="408.9844"/><rect fill="#00FFFF" height="185.7695" style="stroke:#000000;stroke-width:1.0;" width="10" x="468" y="675.457"/><rect fill="#00FFFF" height="854.7578" style="stroke:#000000;stroke-width:1.0;" width="10" x="468" y="914.9297"/><rect fill="#00FFFF" height="1079.8906" style="stroke:#000000;stroke-width:1.0;" width="10" x="737" y="164.6641"/><polygon fill="#000000" points="456,130.3125,466,134.3125,456,138.3125" style="stroke:#000000;stroke-width:1.0;"/><line style="stroke:#000000;stroke-width:1.0;" x1="209" x2="462" y1="134.3125" y2="134.3125"/><text fill="#000000" font-family="sans-serif" font-size="13" lengthAdjust="spacing" textLength="64" x="304.5" y="113.1045">erste Karte</text><text fill="#000000" font-family="sans-serif" font-size="13" lengthAdjust="spacing" textLength="31" x="323" y="129.4561">legen</text><path d="M36,105.7852 L36,131.7852 L199,131.7852 L199,115.7852 L189,105.7852 L36,105.7852 " fill="#FBFB77" style="stroke:#A80036;stroke-width:1.0;"/><path d="M189,105.7852 L189,115.7852 L199,115.7852 L189,105.7852 " fill="#FBFB77" style="stroke:#A80036;stroke-width:1.0;"/><text fill="#000000" font-family="sans-serif" font-size="13" lengthAdjust="spacing" textLength="142" x="42" y="124.2803">ab hier startet der Angriff</text><polygon fill="#000000" points="725,160.6641,735,164.6641,725,168.6641" style="stroke:#000000;stroke-width:1.0;"/><line style="stroke:#000000;stroke-width:1.0;" x1="478" x2="731" y1="164.6641" y2="164.6641"/><text fill="#000000" font-family="sans-serif" font-size="13" lengthAdjust="spacing" textLength="44" x="585.5" y="159.8076">aktiviert</text><line style="stroke:#000000;stroke-width:1.0;" x1="478" x2="520" y1="224.2188" y2="224.2188"/><line style="stroke:#000000;stroke-width:1.0;" x1="520" x2="520" y1="224.2188" y2="237.2188"/><line style="stroke:#000000;stroke-width:1.0;" x1="479" x2="520" y1="237.2188" y2="237.2188"/><polygon fill="#000000" points="489,233.2188,479,237.2188,489,241.2188" style="stroke:#000000;stroke-width:1.0;"/><text fill="#000000" font-family="sans-serif" font-size="13" lengthAdjust="spacing" textLength="151" x="485" y="219.3623">Fügt dem Timer Zeit hinzu</text><path d="M238,177.6641 L238,268.6641 L463,268.6641 L463,187.6641 L453,177.6641 L238,177.6641 " fill="#FBFB77" style="stroke:#A80036;stroke-width:1.0;"/><path d="M453,177.6641 L453,187.6641 L463,187.6641 L453,177.6641 " fill="#FBFB77" style="stroke:#A80036;stroke-width:1.0;"/><text fill="#000000" font-family="sans-serif" font-size="13" lengthAdjust="spacing" textLength="154" x="244" y="196.1592">Hier hat der Verteidiger die</text><text fill="#000000" font-family="sans-serif" font-size="13" lengthAdjust="spacing" textLength="132" x="244" y="212.5107">Chance eine Karte des</text><text fill="#000000" font-family="sans-serif" font-size="13" lengthAdjust="spacing" textLength="171" x="244" y="228.8623">gleichen Werts hinzuzulegen.</text><text fill="#000000" font-family="sans-serif" font-size="13" lengthAdjust="spacing" textLength="204" x="244" y="245.2139">Dies triggert die funktion schieben()</text><text fill="#000000" font-family="sans-serif" font-size="13" lengthAdjust="spacing" textLength="77" x="244" y="261.5654">des Systems</text><polygon fill="#000000" points="307,292.7734,297,296.7734,307,300.7734" style="stroke:#000000;stroke-width:1.0;"/><line style="stroke:#000000;stroke-width:1.0;" x1="301" x2="467" y1="296.7734" y2="296.7734"/><text fill="#000000" font-family="sans-serif" font-size="13" lengthAdjust="spacing" textLength="44" x="360" y="291.917">aktiviert</text><path d="M10,341.7734 L83,341.7734 L83,349.7734 L73,359.7734 L10,359.7734 L10,341.7734 " fill="#EEEEEE" style="stroke:#000000;stroke-width:1.0;"/><rect fill="none" height="873.4297" style="stroke:#000000;stroke-width:2.0;" width="946.5" x="10" y="341.7734"/><text fill="#000000" font-family="sans-serif" font-size="13" font-weight="bold" lengthAdjust="spacing" textLength="28" x="25" y="356.2686">loop</text><text fill="#000000" font-family="sans-serif" font-size="11" font-weight="bold" lengthAdjust="spacing" textLength="144" x="98" y="355.1924">[bis Karten Verteidiger = 0</text><text fill="#000000" font-family="sans-serif" font-size="11" font-weight="bold" lengthAdjust="spacing" textLength="190" x="98" y="369.0283">oder Verteidiger nimmt Karten auf</text><text fill="#000000" font-family="sans-serif" font-size="11" font-weight="bold" lengthAdjust="spacing" textLength="144" x="98" y="382.8643">oder timer ist abgelaufen]</text><line style="stroke:#000000;stroke-width:1.0;" x1="466" x2="456" y1="408.9844" y2="404.9844"/><line style="stroke:#000000;stroke-width:1.0;" x1="466" x2="456" y1="408.9844" y2="412.9844"/><line style="stroke:#000000;stroke-width:1.0;" x1="296" x2="467" y1="408.9844" y2="408.9844"/><text fill="#000000" font-family="sans-serif" font-size="13" lengthAdjust="spacing" textLength="98" x="333" y="404.1279">Karte dazu legen</text><line style="stroke:#000000;stroke-width:1.0;" x1="478" x2="520" y1="439.3359" y2="439.3359"/><line style="stroke:#000000;stroke-width:1.0;" x1="520" x2="520" y1="439.3359" y2="452.3359"/><line style="stroke:#000000;stroke-width:1.0;" x1="479" x2="520" y1="452.3359" y2="452.3359"/><polygon fill="#000000" points="489,448.3359,479,452.3359,489,456.3359" style="stroke:#000000;stroke-width:1.0;"/><text fill="#000000" font-family="sans-serif" font-size="13" lengthAdjust="spacing" textLength="78" x="485" y="434.4795">validiert Karte</text><path d="M249,467.3359 L310,467.3359 L310,475.3359 L300,485.3359 L249,485.3359 L249,467.3359 " fill="#EEEEEE" style="stroke:#000000;stroke-width:1.0;"/><rect fill="none" height="151.2422" style="stroke:#000000;stroke-width:2.0;" width="399" x="249" y="467.3359"/><text fill="#000000" font-family="sans-serif" font-size="13" font-weight="bold" lengthAdjust="spacing" textLength="16" x="264" y="481.8311">alt</text><text fill="#000000" font-family="sans-serif" font-size="11" font-weight="bold" lengthAdjust="spacing" textLength="31" x="325" y="480.7549">[true]</text><path d="M653,472.3359 L653,547.3359 L760,547.3359 L760,482.3359 L750,472.3359 L653,472.3359 " fill="#FBFB77" style="stroke:#A80036;stroke-width:1.0;"/><path d="M750,472.3359 L750,482.3359 L760,482.3359 L750,472.3359 " fill="#FBFB77" style="stroke:#A80036;stroke-width:1.0;"/><text fill="#000000" font-family="sans-serif" font-size="13" lengthAdjust="spacing" textLength="81" x="659" y="490.8311">bis zu diesem</text><text fill="#000000" font-family="sans-serif" font-size="13" lengthAdjust="spacing" textLength="82" x="659" y="507.1826">Block wird der</text><text fill="#000000" font-family="sans-serif" font-size="13" lengthAdjust="spacing" textLength="36" x="659" y="523.5342">Angriff</text><text fill="#000000" font-family="sans-serif" font-size="13" lengthAdjust="spacing" textLength="70" x="659" y="539.8857">beschrieben</text><line style="stroke:#000000;stroke-width:1.0;" x1="478" x2="520" y1="508.0391" y2="508.0391"/><line style="stroke:#000000;stroke-width:1.0;" x1="520" x2="520" y1="508.0391" y2="521.0391"/><line style="stroke:#000000;stroke-width:1.0;" x1="479" x2="520" y1="521.0391" y2="521.0391"/><polygon fill="#000000" points="489,517.0391,479,521.0391,489,525.0391" style="stroke:#000000;stroke-width:1.0;"/><text fill="#000000" font-family="sans-serif" font-size="13" lengthAdjust="spacing" textLength="137" x="485" y="503.1826">platziert Karte auf Tisch</text><line style="stroke:#000000;stroke-width:1.0;" x1="478" x2="520" y1="551.3906" y2="551.3906"/><line style="stroke:#000000;stroke-width:1.0;" x1="520" x2="520" y1="551.3906" y2="564.3906"/><line style="stroke:#000000;stroke-width:1.0;" x1="479" x2="520" y1="564.3906" y2="564.3906"/><polygon fill="#000000" points="489,560.3906,479,564.3906,489,568.3906" style="stroke:#000000;stroke-width:1.0;"/><text fill="#000000" font-family="sans-serif" font-size="13" lengthAdjust="spacing" textLength="151" x="485" y="546.5342">Fügt dem Timer Zeit hinzu</text><line style="stroke:#000000;stroke-width:1.0;stroke-dasharray:2.0,2.0;" x1="249" x2="648" y1="573.3906" y2="573.3906"/><text fill="#000000" font-family="sans-serif" font-size="11" font-weight="bold" lengthAdjust="spacing" textLength="35" x="254" y="584.8096">[false]</text><polygon fill="#000000" points="307,606.5781,297,610.5781,307,614.5781" style="stroke:#000000;stroke-width:1.0;"/><line style="stroke:#000000;stroke-width:1.0;" x1="301" x2="472" y1="610.5781" y2="610.5781"/><text fill="#000000" font-family="sans-serif" font-size="13" lengthAdjust="spacing" textLength="147" x="311" y="605.7217">Karte an Angreifer zurück</text><line style="stroke:#000000;stroke-width:1.0;" x1="478" x2="488" y1="675.457" y2="671.457"/><line style="stroke:#000000;stroke-width:1.0;" x1="478" x2="488" y1="675.457" y2="679.457"/><line style="stroke:#000000;stroke-width:1.0;" x1="478" x2="736" y1="675.457" y2="675.457"/><text fill="#000000" font-family="sans-serif" font-size="13" lengthAdjust="spacing" textLength="161" x="527" y="654.249">Legt Karte auf Angriffskarte,</text><text fill="#000000" font-family="sans-serif" font-size="13" lengthAdjust="spacing" textLength="92" x="561.5" y="670.6006">um zu schalgen</text><path d="M349,630.5781 L349,689.5781 L463,689.5781 L463,640.5781 L453,630.5781 L349,630.5781 " fill="#FBFB77" style="stroke:#A80036;stroke-width:1.0;"/><path d="M453,630.5781 L453,640.5781 L463,640.5781 L453,630.5781 " fill="#FBFB77" style="stroke:#A80036;stroke-width:1.0;"/><text fill="#000000" font-family="sans-serif" font-size="13" lengthAdjust="spacing" textLength="82" x="355" y="649.0732">Ab hier startet</text><text fill="#000000" font-family="sans-serif" font-size="13" lengthAdjust="spacing" textLength="93" x="355" y="665.4248">die Verteidigung</text><text fill="#000000" font-family="sans-serif" font-size="13" lengthAdjust="spacing" textLength="0" x="359" y="681.7764"/><line style="stroke:#000000;stroke-width:1.0;" x1="478" x2="520" y1="716.9844" y2="716.9844"/><line style="stroke:#000000;stroke-width:1.0;" x1="520" x2="520" y1="716.9844" y2="729.9844"/><line style="stroke:#000000;stroke-width:1.0;" x1="479" x2="520" y1="729.9844" y2="729.9844"/><polygon fill="#000000" points="489,725.9844,479,729.9844,489,733.9844" style="stroke:#000000;stroke-width:1.0;"/><text fill="#000000" font-family="sans-serif" font-size="13" lengthAdjust="spacing" textLength="78" x="485" y="712.1279">validiert Karte</text><path d="M437,744.9844 L498,744.9844 L498,752.9844 L488,762.9844 L437,762.9844 L437,744.9844 " fill="#EEEEEE" style="stroke:#000000;stroke-width:1.0;"/><rect fill="none" height="124.2422" style="stroke:#000000;stroke-width:2.0;" width="352.5" x="437" y="744.9844"/><text fill="#000000" font-family="sans-serif" font-size="13" font-weight="bold" lengthAdjust="spacing" textLength="16" x="452" y="759.4795">alt</text><text fill="#000000" font-family="sans-serif" font-size="11" font-weight="bold" lengthAdjust="spacing" textLength="31" x="513" y="758.4033">[true]</text><path d="M794.5,749.9844 L794.5,791.9844 L941.5,791.9844 L941.5,759.9844 L931.5,749.9844 L794.5,749.9844 " fill="#FBFB77" style="stroke:#A80036;stroke-width:1.0;"/><path d="M931.5,749.9844 L931.5,759.9844 L941.5,759.9844 L931.5,749.9844 " fill="#FBFB77" style="stroke:#A80036;stroke-width:1.0;"/><text fill="#000000" font-family="sans-serif" font-size="13" lengthAdjust="spacing" textLength="114" x="800.5" y="768.4795">Dieser Block gehört</text><text fill="#000000" font-family="sans-serif" font-size="13" lengthAdjust="spacing" textLength="126" x="800.5" y="784.8311">noch zur Verteidigung</text><line style="stroke:#000000;stroke-width:1.0;" x1="478" x2="520" y1="802.0391" y2="802.0391"/><line style="stroke:#000000;stroke-width:1.0;" x1="520" x2="520" y1="802.0391" y2="815.0391"/><line style="stroke:#000000;stroke-width:1.0;" x1="479" x2="520" y1="815.0391" y2="815.0391"/><polygon fill="#000000" points="489,811.0391,479,815.0391,489,819.0391" style="stroke:#000000;stroke-width:1.0;"/><text fill="#000000" font-family="sans-serif" font-size="13" lengthAdjust="spacing" textLength="79" x="485" y="780.8311">Karte wird auf</text><text fill="#000000" font-family="sans-serif" font-size="13" lengthAdjust="spacing" textLength="122" x="489" y="797.1826">Angriffskarte platziert</text><line style="stroke:#000000;stroke-width:1.0;stroke-dasharray:2.0,2.0;" x1="437" x2="789.5" y1="824.0391" y2="824.0391"/><text fill="#000000" font-family="sans-serif" font-size="11" font-weight="bold" lengthAdjust="spacing" textLength="35" x="442" y="835.458">[false]</text><polygon fill="#000000" points="725,857.2266,735,861.2266,725,865.2266" style="stroke:#000000;stroke-width:1.0;"/><line style="stroke:#000000;stroke-width:1.0;" x1="473" x2="731" y1="861.2266" y2="861.2266"/><text fill="#000000" font-family="sans-serif" font-size="13" lengthAdjust="spacing" textLength="158" x="526" y="856.3701">Karte an Verteidiger zurück</text><line style="stroke:#000000;stroke-width:1.0;" x1="478" x2="488" y1="914.9297" y2="910.9297"/><line style="stroke:#000000;stroke-width:1.0;" x1="478" x2="488" y1="914.9297" y2="918.9297"/><line style="stroke:#000000;stroke-width:1.0;" x1="478" x2="736" y1="914.9297" y2="914.9297"/><text fill="#000000" font-family="sans-serif" font-size="13" lengthAdjust="spacing" textLength="99" x="556" y="893.7217">nimmt Karten auf</text><text fill="#000000" font-family="sans-serif" font-size="13" lengthAdjust="spacing" textLength="141" x="537" y="910.0732">(durch Benutzereingabe)</text><line style="stroke:#000000;stroke-width:1.0;" x1="478" x2="520" y1="961.6328" y2="961.6328"/><line style="stroke:#000000;stroke-width:1.0;" x1="520" x2="520" y1="961.6328" y2="974.6328"/><line style="stroke:#000000;stroke-width:1.0;" x1="479" x2="520" y1="974.6328" y2="974.6328"/><line style="stroke:#000000;stroke-width:1.0;" x1="479" x2="489" y1="974.6328" y2="970.6328"/><line style="stroke:#000000;stroke-width:1.0;" x1="479" x2="489" y1="974.6328" y2="978.6328"/><text fill="#000000" font-family="sans-serif" font-size="13" lengthAdjust="spacing" textLength="75" x="485" y="940.4248">bricht Zug ab</text><text fill="#000000" font-family="sans-serif" font-size="13" lengthAdjust="spacing" textLength="110" x="485" y="956.7764">(durch Timerablauf)</text><path d="M20,987.6328 L20,1209.6328 L281,1209.6328 L281,997.6328 L271,987.6328 L20,987.6328 " fill="#00FFFF" style="stroke:#A80036;stroke-width:1.0;"/><path d="M271,987.6328 L271,997.6328 L281,997.6328 L271,987.6328 " fill="#00FFFF" style="stroke:#A80036;stroke-width:1.0;"/><text fill="#000000" font-family="sans-serif" font-size="13" lengthAdjust="spacing" textLength="211" x="26" y="1006.1279">Ein Spezialfall an dieser Stelle wäre,</text><text fill="#000000" font-family="sans-serif" font-size="13" lengthAdjust="spacing" textLength="236" x="26" y="1022.4795">dass einer der Spieler keine Karten mehr</text><text fill="#000000" font-family="sans-serif" font-size="13" lengthAdjust="spacing" textLength="99" x="26" y="1038.8311">auf der Hand hat.</text><text fill="#000000" font-family="sans-serif" font-size="13" lengthAdjust="spacing" textLength="205" x="26" y="1055.1826">In diesem Fall werden alle Angreifer</text><text fill="#000000" font-family="sans-serif" font-size="13" lengthAdjust="spacing" textLength="206" x="26" y="1071.5342">deaktiviert und können keine Karten</text><text fill="#000000" font-family="sans-serif" font-size="13" lengthAdjust="spacing" textLength="96" x="26" y="1087.8857">mehr dazulegen.</text><text fill="#000000" font-family="sans-serif" font-size="13" lengthAdjust="spacing" textLength="177" x="26" y="1104.2373">Der Verteidiger hat die Chance</text><text fill="#000000" font-family="sans-serif" font-size="13" lengthAdjust="spacing" textLength="170" x="26" y="1120.5889">seinen Zug noch zu beenden.</text><text fill="#000000" font-family="sans-serif" font-size="13" lengthAdjust="spacing" textLength="187" x="26" y="1136.9404">Danach wird die Runde beendet.</text><text fill="#000000" font-family="sans-serif" font-size="13" lengthAdjust="spacing" textLength="176" x="26" y="1153.292">Pro Spieler werden die übrigen</text><text fill="#000000" font-family="sans-serif" font-size="13" lengthAdjust="spacing" textLength="230" x="26" y="1169.6436">Handkarten nach ihrem Wert (Bild = 10)</text><text fill="#000000" font-family="sans-serif" font-size="13" lengthAdjust="spacing" textLength="230" x="26" y="1185.9951">zusammengezählt und auf das jeweilige</text><text fill="#000000" font-family="sans-serif" font-size="13" lengthAdjust="spacing" textLength="125" x="26" y="1202.3467">Gesamtkonto addiert.</text><polygon fill="#000000" points="730,1240.5547,740,1244.5547,730,1248.5547" style="stroke:#000000;stroke-width:1.0;"/><line style="stroke:#000000;stroke-width:1.0;" x1="478" x2="736" y1="1244.5547" y2="1244.5547"/><text fill="#000000" font-family="sans-serif" font-size="13" lengthAdjust="spacing" textLength="130" x="545" y="1239.6982">verteidiger deaktivieren</text><polygon fill="#000000" points="302,1270.9063,292,1274.9063,302,1278.9063" style="stroke:#000000;stroke-width:1.0;"/><line style="stroke:#000000;stroke-width:1.0;" x1="296" x2="467" y1="1274.9063" y2="1274.9063"/><text fill="#000000" font-family="sans-serif" font-size="13" lengthAdjust="spacing" textLength="121" x="319" y="1270.0498">angreifer deaktivieren</text><line style="stroke:#000000;stroke-width:1.0;" x1="478" x2="520" y1="1321.6094" y2="1321.6094"/><line style="stroke:#000000;stroke-width:1.0;" x1="520" x2="520" y1="1321.6094" y2="1334.6094"/><line style="stroke:#000000;stroke-width:1.0;" x1="479" x2="520" y1="1334.6094" y2="1334.6094"/><polygon fill="#000000" points="489,1330.6094,479,1334.6094,489,1338.6094" style="stroke:#000000;stroke-width:1.0;"/><text fill="#000000" font-family="sans-serif" font-size="13" lengthAdjust="spacing" textLength="228" x="485" y="1300.4014">prüft ob alle Karten geschlagen wurden,</text><text fill="#000000" font-family="sans-serif" font-size="13" lengthAdjust="spacing" textLength="141" x="485" y="1316.7529">merkt sich das Ergebnis</text><path d="M437,1349.6094 L498,1349.6094 L498,1357.6094 L488,1367.6094 L437,1367.6094 L437,1349.6094 " fill="#EEEEEE" style="stroke:#000000;stroke-width:1.0;"/><rect fill="none" height="48.7031" style="stroke:#000000;stroke-width:2.0;" width="352.5" x="437" y="1349.6094"/><text fill="#000000" font-family="sans-serif" font-size="13" font-weight="bold" lengthAdjust="spacing" textLength="16" x="452" y="1364.1045">alt</text><text fill="#000000" font-family="sans-serif" font-size="11" font-weight="bold" lengthAdjust="spacing" textLength="35" x="513" y="1363.0283">[false]</text><polygon fill="#000000" points="730,1386.3125,740,1390.3125,730,1394.3125" style="stroke:#000000;stroke-width:1.0;"/><line style="stroke:#000000;stroke-width:1.0;" x1="478" x2="736" y1="1390.3125" y2="1390.3125"/><text fill="#000000" font-family="sans-serif" font-size="13" lengthAdjust="spacing" textLength="231" x="494.5" y="1385.4561">alle Karten auf dem Tisch an Verteidiger</text><path d="M249,1412.3125 L322,1412.3125 L322,1420.3125 L312,1430.3125 L249,1430.3125 L249,1412.3125 " fill="#EEEEEE" style="stroke:#000000;stroke-width:1.0;"/><rect fill="none" height="138.2656" style="stroke:#000000;stroke-width:2.0;" width="540.5" x="249" y="1412.3125"/><text fill="#000000" font-family="sans-serif" font-size="13" font-weight="bold" lengthAdjust="spacing" textLength="28" x="264" y="1426.8076">loop</text><text fill="#000000" font-family="sans-serif" font-size="11" font-weight="bold" lengthAdjust="spacing" textLength="99" x="337" y="1425.7314">[für jeden spieler,</text><text fill="#000000" font-family="sans-serif" font-size="11" font-weight="bold" lengthAdjust="spacing" textLength="139" x="337" y="1439.5674">begonnen bei angreifer1,</text><text fill="#000000" font-family="sans-serif" font-size="11" font-weight="bold" lengthAdjust="spacing" textLength="223" x="340" y="1453.4033">solange stapel &gt; 0 und spielerkarten &lt; 6]</text><polygon fill="#000000" points="730,1491.875,740,1495.875,730,1499.875" style="stroke:#000000;stroke-width:1.0;"/><line style="stroke:#000000;stroke-width:1.0;" x1="478" x2="736" y1="1495.875" y2="1495.875"/><text fill="#000000" font-family="sans-serif" font-size="13" lengthAdjust="spacing" textLength="149" x="533.5" y="1474.667">Karte vom Stapel nehmen</text><text fill="#000000" font-family="sans-serif" font-size="13" lengthAdjust="spacing" textLength="120" x="550" y="1491.0186">und an spieler geben</text><polygon fill="#000000" points="302,1538.5781,292,1542.5781,302,1546.5781" style="stroke:#000000;stroke-width:1.0;"/><line style="stroke:#000000;stroke-width:1.0;" x1="296" x2="467" y1="1542.5781" y2="1542.5781"/><text fill="#000000" font-family="sans-serif" font-size="13" lengthAdjust="spacing" textLength="149" x="303" y="1521.3701">Karte vom Stapel nehmen</text><text fill="#000000" font-family="sans-serif" font-size="13" lengthAdjust="spacing" textLength="120" x="319.5" y="1537.7217">und an spieler geben</text><path d="M437,1564.5781 L498,1564.5781 L498,1572.5781 L488,1582.5781 L437,1582.5781 L437,1564.5781 " fill="#EEEEEE" style="stroke:#000000;stroke-width:1.0;"/><rect fill="none" height="107.0547" style="stroke:#000000;stroke-width:2.0;" width="305" x="437" y="1564.5781"/><text fill="#000000" font-family="sans-serif" font-size="13" font-weight="bold" lengthAdjust="spacing" textLength="16" x="452" y="1579.0732">alt</text><text fill="#000000" font-family="sans-serif" font-size="11" font-weight="bold" lengthAdjust="spacing" textLength="213" x="513" y="1577.9971">[wenn alle Karten geschlagen wurden]</text><line style="stroke:#000000;stroke-width:1.0;" x1="478" x2="520" y1="1605.2813" y2="1605.2813"/><line style="stroke:#000000;stroke-width:1.0;" x1="520" x2="520" y1="1605.2813" y2="1618.2813"/><line style="stroke:#000000;stroke-width:1.0;" x1="479" x2="520" y1="1618.2813" y2="1618.2813"/><polygon fill="#000000" points="489,1614.2813,479,1618.2813,489,1622.2813" style="stroke:#000000;stroke-width:1.0;"/><text fill="#000000" font-family="sans-serif" font-size="13" lengthAdjust="spacing" textLength="169" x="485" y="1600.4248">Verteidiger wird zu Angreifer1</text><line style="stroke:#000000;stroke-width:1.0;stroke-dasharray:2.0,2.0;" x1="437" x2="742" y1="1627.2813" y2="1627.2813"/><line style="stroke:#000000;stroke-width:1.0;" x1="478" x2="520" y1="1650.6328" y2="1650.6328"/><line style="stroke:#000000;stroke-width:1.0;" x1="520" x2="520" y1="1650.6328" y2="1663.6328"/><line style="stroke:#000000;stroke-width:1.0;" x1="479" x2="520" y1="1663.6328" y2="1663.6328"/><polygon fill="#000000" points="489,1659.6328,479,1663.6328,489,1667.6328" style="stroke:#000000;stroke-width:1.0;"/><text fill="#000000" font-family="sans-serif" font-size="13" lengthAdjust="spacing" textLength="245" x="485" y="1645.7764">Spieler nach Verteidiger wird zu Angreifer1</text><line style="stroke:#000000;stroke-width:1.0;" x1="478" x2="520" y1="1717.3359" y2="1717.3359"/><line style="stroke:#000000;stroke-width:1.0;" x1="520" x2="520" y1="1717.3359" y2="1730.3359"/><line style="stroke:#000000;stroke-width:1.0;" x1="479" x2="520" y1="1730.3359" y2="1730.3359"/><polygon fill="#000000" points="489,1726.3359,479,1730.3359,489,1734.3359" style="stroke:#000000;stroke-width:1.0;"/><text fill="#000000" font-family="sans-serif" font-size="13" lengthAdjust="spacing" textLength="177" x="485" y="1696.1279">Spieler nach neuem Angreifer1</text><text fill="#000000" font-family="sans-serif" font-size="13" lengthAdjust="spacing" textLength="107" x="485" y="1712.4795">wird zu Verteidiger</text><polygon fill="#000000" points="225,1756.6875,215,1760.6875,225,1764.6875" style="stroke:#000000;stroke-width:1.0;"/><line style="stroke:#000000;stroke-width:1.0;" x1="219" x2="467" y1="1760.6875" y2="1760.6875"/><text fill="#000000" font-family="sans-serif" font-size="13" lengthAdjust="spacing" textLength="112" x="285" y="1755.8311">Aktiviert Angreifer 1</text><!--MD5=[3cf33d41a6cd19d373837a45c0b93d11]
@startuml Durak Zug

skinparam {
    Style strictuml

    ArrowColor black
    ActorBorderColor black
    ActorBackgroundColor white
    ActorFontColor black

    EntityBackgroundColor lawnGreen
    EntityBackgroundColor white
    EntityBorderColor black

    SequenceMessageAlignment center 
}

skinparam sequence {
    LifeLineBorderColor black
    LifeLineBackgroundColor #aqua
}

skinparam Shadowing false

'- - - - - - - - - - - - - - - - - - - - - - - - - - - - - - - - - - - - - - - - - - - - - - - - - - - - -

actor "1. Angreifer" as a1
actor "Angreifer" as a
entity System as sys
actor Verteidiger as v

'- - - - - - - - - - - - - - - - - - - - - - - - - - - - - - - - - - - - - - - - - - - - - - - - - - - - -
activate a1
a1 -> sys - -++: erste Karte \nlegen
note left: ab hier startet der Angriff


sys -> v ++ : aktiviert
sys -> sys : Fügt dem Timer Zeit hinzu
note left  
Hier hat der Verteidiger die 
Chance eine Karte des 
gleichen Werts hinzuzulegen.
Dies triggert die funktion schieben()
des Systems
end note
sys -> a ++- - : aktiviert


loop bis Karten Verteidiger = 0 \noder Verteidiger nimmt Karten auf \noder timer ist abgelaufen
    
    a ->> sys ++: Karte dazu legen

    sys -> sys : validiert Karte

    alt true

        sys -> sys : platziert Karte auf Tisch
        sys -> sys : Fügt dem Timer Zeit hinzu

    else false

        sys -> a - -: Karte an Angreifer zurück

    end
    note left: bis zu diesem \nBlock wird der \nAngriff \nbeschrieben

    v ->> sys ++ : Legt Karte auf Angriffskarte,\num zu schalgen
    note left: Ab hier startet \ndie Verteidigung\n

    sys -> sys : validiert Karte

    alt true

        sys -> sys : Karte wird auf \n Angriffskarte platziert

    else false

        sys -> v - - : Karte an Verteidiger zurück

    end
    note left: Dieser Block gehört \nnoch zur Verteidigung

    v ->> sys ++ : nimmt Karten auf \n(durch Benutzereingabe)
    sys ->> sys: bricht Zug ab \n(durch Timerablauf)
    note left of a #aqua
    Ein Spezialfall an dieser Stelle wäre,
    dass einer der Spieler keine Karten mehr 
    auf der Hand hat.
    In diesem Fall werden alle Angreifer 
    deaktiviert und können keine Karten 
    mehr dazulegen.
    Der Verteidiger hat die Chance 
    seinen Zug noch zu beenden.
    Danach wird die Runde beendet.
    Pro Spieler werden die übrigen 
    Handkarten nach ihrem Wert (Bild = 10) 
    zusammengezählt und auf das jeweilige 
    Gesamtkonto addiert.
    end note

end


sys -> v : verteidiger deaktivieren
deactivate v
sys -> a : angreifer deaktivieren
deactivate a

sys -> sys : prüft ob alle Karten geschlagen wurden, \nmerkt sich das Ergebnis

alt false

    sys -> v : alle Karten auf dem Tisch an Verteidiger

end

loop für jeden spieler, \nbegonnen bei angreifer1, \n solange stapel > 0 und spielerkarten < 6
    sys -> v : Karte vom Stapel nehmen \nund an spieler geben
    sys -> a : Karte vom Stapel nehmen \nund an spieler geben
end

alt wenn alle Karten geschlagen wurden
    sys -> sys : Verteidiger wird zu Angreifer1

else
    sys -> sys : Spieler nach Verteidiger wird zu Angreifer1
end

sys -> sys : Spieler nach neuem Angreifer1 \nwird zu Verteidiger

sys -> a1 ++ : Aktiviert Angreifer 1


@enduml

@startuml Durak Zug

skinparam {
    Style strictuml

    ArrowColor black
    ActorBorderColor black
    ActorBackgroundColor white
    ActorFontColor black

    EntityBackgroundColor lawnGreen
    EntityBackgroundColor white
    EntityBorderColor black

    SequenceMessageAlignment center 
}

skinparam sequence {
    LifeLineBorderColor black
    LifeLineBackgroundColor #aqua
}

skinparam Shadowing false


actor "1. Angreifer" as a1
actor "Angreifer" as a
entity System as sys
actor Verteidiger as v

activate a1
a1 -> sys - -++: erste Karte \nlegen
note left: ab hier startet der Angriff


sys -> v ++ : aktiviert
sys -> sys : Fügt dem Timer Zeit hinzu
note left  
Hier hat der Verteidiger die 
Chance eine Karte des 
gleichen Werts hinzuzulegen.
Dies triggert die funktion schieben()
des Systems
end note
sys -> a ++- - : aktiviert


loop bis Karten Verteidiger = 0 \noder Verteidiger nimmt Karten auf \noder timer ist abgelaufen
    
    a ->> sys ++: Karte dazu legen

    sys -> sys : validiert Karte

    alt true

        sys -> sys : platziert Karte auf Tisch
        sys -> sys : Fügt dem Timer Zeit hinzu

    else false

        sys -> a - -: Karte an Angreifer zurück

    end
    note left: bis zu diesem \nBlock wird der \nAngriff \nbeschrieben

    v ->> sys ++ : Legt Karte auf Angriffskarte,\num zu schalgen
    note left: Ab hier startet \ndie Verteidigung\n

    sys -> sys : validiert Karte

    alt true

        sys -> sys : Karte wird auf \n Angriffskarte platziert

    else false

        sys -> v - - : Karte an Verteidiger zurück

    end
    note left: Dieser Block gehört \nnoch zur Verteidigung

    v ->> sys ++ : nimmt Karten auf \n(durch Benutzereingabe)
    sys ->> sys: bricht Zug ab \n(durch Timerablauf)
    note left of a #aqua
    Ein Spezialfall an dieser Stelle wäre,
    dass einer der Spieler keine Karten mehr 
    auf der Hand hat.
    In diesem Fall werden alle Angreifer 
    deaktiviert und können keine Karten 
    mehr dazulegen.
    Der Verteidiger hat die Chance 
    seinen Zug noch zu beenden.
    Danach wird die Runde beendet.
    Pro Spieler werden die übrigen 
    Handkarten nach ihrem Wert (Bild = 10) 
    zusammengezählt und auf das jeweilige 
    Gesamtkonto addiert.
    end note

end


sys -> v : verteidiger deaktivieren
deactivate v
sys -> a : angreifer deaktivieren
deactivate a

sys -> sys : prüft ob alle Karten geschlagen wurden, \nmerkt sich das Ergebnis

alt false

    sys -> v : alle Karten auf dem Tisch an Verteidiger

end

loop für jeden spieler, \nbegonnen bei angreifer1, \n solange stapel > 0 und spielerkarten < 6
    sys -> v : Karte vom Stapel nehmen \nund an spieler geben
    sys -> a : Karte vom Stapel nehmen \nund an spieler geben
end

alt wenn alle Karten geschlagen wurden
    sys -> sys : Verteidiger wird zu Angreifer1

else
    sys -> sys : Spieler nach Verteidiger wird zu Angreifer1
end

sys -> sys : Spieler nach neuem Angreifer1 \nwird zu Verteidiger

sys -> a1 ++ : Aktiviert Angreifer 1


@enduml

PlantUML version 1.2021.7(Sun May 23 14:40:07 CEST 2021)
(GPL source distribution)
Java Runtime: Java(TM) SE Runtime Environment
JVM: Java HotSpot(TM) 64-Bit Server VM
Default Encoding: Cp1252
Language: de
Country: DE
--></g></svg>